<?xml version="1.0" encoding="utf-8"?>
<?xml-stylesheet type="text/xsl" href="rss1.xsl"?>
<rss version="2.0" xmlns:atom="http://www.w3.org/2005/Atom" xmlns:content="http://purl.org/rss/1.0/modules/content/" xmlns:dc="http://purl.org/dc/elements/1.1/" xmlns:media="http://search.yahoo.com/mrss/">
<channel>
 <title>Getty</title>
 <link>http://www.gettyimg.com/</link>
 <atom:link href="http://www.gettyimg.com/" rel="self" type="application/rss+xml" />

 
                <item>
                <title><![CDATA[【Cinema Center】SERIES - Queer As Folk US Season 4 (2000) [1080p AMZN WEBRip DD+ 5.1]]]></title>
                <link><![CDATA[https://sharemania.us/threads/queer-as-folk-us-season-4-2000-1080p-amzn-webrip-dd-5-1.248702/]]></link>
                <description><![CDATA[<article>
<blockquote class="messageText SelectQuoteContainer ugc baseHtml">
<div style="text-align: center"><span style="font-family: 'Georgia'"><img src="https://i.imgur.com/5kC01Se.jpeg" class="bbCodeImage LbImage" alt="[​IMG]" data-url="https://i.imgur.com/5kC01Se.jpeg" style=""> <br>
<br>
<b><img src="https://i.imgur.com/NvDTQjE.png" class="bbCodeImage LbImage" alt="[​IMG]" data-url="https://i.imgur.com/NvDTQjE.png" style=""> </b>8.5 • Average Runtime: 47m • 2000 • TV-MA<br>
</span>​</div><span style="font-family: 'Georgia'"><div style="text-align: center">
<div class="bbCodeBlock bbCodeQuote">
<aside>
<blockquote class="quoteContainer"><div class="quote"><i><div style="text-align: center"><span style="font-family: 'Droid Sans'"><b><span style="font-family: 'Georgia'">Description:</span></b></span>​</div></i></div><div class="quoteExpand">Click to expand...</div></blockquote>
</aside>
</div></div></span>
<div class="bbCodeBlock bbCodeQuote">
<aside>
<blockquote class="quoteContainer"><div class="quote"><div style="text-align: center"><span style="font-family: 'Georgia'">Brash humor and genuine emotion make up this series revolving around the lives, loves, ambitions, careers and friendships of a group of gay men and women living on Liberty Avenue in contemporary Pittsburgh, PA.</span>​</div></div><div class="quoteExpand">Click to expand...</div></blockquote>
</aside>
</div><div style="text-align: center">​</div><span style="font-family: 'Georgia'"><div style="text-align: center">
<div class="bbCodeBlock bbCodeQuote">
<aside>
<blockquote class="quoteContainer"><div class="quote"><b><div style="text-align: center"><span style="font-family: 'Droid Sans'"><span style="font-family: 'Georgia'">Details:</span></span>​</div></b></div><div class="quoteExpand">Click to expand...</div></blockquote>
</aside>
</div></div>
<div class="bbCodeBlock bbCodeQuote">
<aside>
<blockquote class="quoteContainer"><div class="quote"><i><div style="text-align: center"><i><b>Creators:</b> Ron Cowen, Daniel Lipman, Russell T. Davies<br>
<b>Starring:</b> Gale Harold, Hal Sparks, Randy Harrison<br>
<b>Genres:</b> Drama, Romance<br>
<b>Audio Language(s):</b> English<br>
<b>Subtitles:</b> English [CC]<br>
<b>Maturity Rating:</b> TV-MA<br>
<b>Content Advisory: </b>Sex &amp; Nudity, Profanity, Alcohol, Drugs, &amp; Smoking</i>​</div></i></div><div class="quoteExpand">Click to expand...</div></blockquote>
</aside>
</div><i><div style="text-align: center">​</div></i><br>
<i><div style="text-align: center">
<div class="bbCodeBlock bbCodeQuote">
<aside>
<blockquote class="quoteContainer"><div class="quote"><b><div style="text-align: center"><span style="font-family: 'Droid Sans'"><span style="font-family: 'Georgia'">Source:</span></span><br>
<span style="font-family: 'Droid Sans'"><span style="font-family: 'Georgia'"><img src="https://i.imgur.com/UquWuUD.png" class="bbCodeImage LbImage" alt="[​IMG]" data-url="https://i.imgur.com/UquWuUD.png" style=""></span></span>​</div></b></div><div class="quoteExpand">Click to expand...</div></blockquote>
</aside>
</div></div></i>
<div class="bbCodeBlock bbCodeQuote">
<aside>
<blockquote class="quoteContainer"><div class="quote"><div style="text-align: center">​</div></div><div class="quoteExpand">Click to expand...</div></blockquote>
</aside>
</div><div style="text-align: center">​</div><div style="text-align: center">
<div class="bbCodeBlock bbCodeQuote">
<aside>
<blockquote class="quoteContainer"><div class="quote"><b><div style="text-align: center"><i><span style="font-family: 'Droid Sans'"><i><span style="font-family: 'Georgia'">Release Name:</span></i></span></i>​</div></b></div><div class="quoteExpand">Click to expand...</div></blockquote>
</aside>
</div></div></span>
<div class="bbCodeBlock bbCodeQuote">
<aside>
<blockquote class="quoteContainer"><div class="quote"><div style="text-align: center"><i><b><span style="font-family: 'Georgia'">Queer.as.Folk.US.S03.1080p.AMZN.WEBRip.DDP5.1.x264-NTb[rartv]</span></b></i>​</div></div><div class="quoteExpand">Click to expand...</div></blockquote>
</aside>
</div><div style="text-align: center">​</div><span style="font-family: 'Georgia'"><div style="text-align: center">​</div></span><div style="text-align: center">
<div class="ToggleTriggerAnchor bbCodeSpoilerContainer">
<button type="button" class="button bbCodeSpoilerButton ToggleTrigger Tooltip JsOnly" data-target="> .SpoilerTarget"><span>Spoiler: <span class="SpoilerTitle">Thumbs</span></span></button>
<div class="SpoilerTarget bbCodeSpoilerText"><div style="text-align: center"><i><b><span style="font-family: 'Georgia'"><img src="https://i.imgur.com/JiZVYlC.jpeg" class="bbCodeImage LbImage" alt="[​IMG]" data-url="https://i.imgur.com/JiZVYlC.jpeg" style=""><br>
<img src="https://i.imgur.com/yTWyYx3.jpeg" class="bbCodeImage LbImage" alt="[​IMG]" data-url="https://i.imgur.com/yTWyYx3.jpeg" style=""><br>
<img src="https://i.imgur.com/o4FuT8D.jpeg" class="bbCodeImage LbImage" alt="[​IMG]" data-url="https://i.imgur.com/o4FuT8D.jpeg" style=""><br>
<img src="https://i.imgur.com/vWDGt6s.jpeg" class="bbCodeImage LbImage" alt="[​IMG]" data-url="https://i.imgur.com/vWDGt6s.jpeg" style=""><br>
<img src="https://i.imgur.com/DvNNaax.jpeg" class="bbCodeImage LbImage" alt="[​IMG]" data-url="https://i.imgur.com/DvNNaax.jpeg" style=""><br>
<img src="https://i.imgur.com/AR4jFlT.jpeg" class="bbCodeImage LbImage" alt="[​IMG]" data-url="https://i.imgur.com/AR4jFlT.jpeg" style=""><br>
<img src="https://i.imgur.com/ZUJpfim.jpeg" class="bbCodeImage LbImage" alt="[​IMG]" data-url="https://i.imgur.com/ZUJpfim.jpeg" style=""><br>
<img src="https://i.imgur.com/DB4UxRq.jpeg" class="bbCodeImage LbImage" alt="[​IMG]" data-url="https://i.imgur.com/DB4UxRq.jpeg" style=""><br>
<img src="https://i.imgur.com/KZRh6xF.jpeg" class="bbCodeImage LbImage" alt="[​IMG]" data-url="https://i.imgur.com/KZRh6xF.jpeg" style=""><br>
<img src="https://i.imgur.com/Z8vwmrn.jpeg" class="bbCodeImage LbImage" alt="[​IMG]" data-url="https://i.imgur.com/Z8vwmrn.jpeg" style=""><br>
<img src="https://i.imgur.com/R1szhUL.jpeg" class="bbCodeImage LbImage" alt="[​IMG]" data-url="https://i.imgur.com/R1szhUL.jpeg" style=""><br>
<img src="https://i.imgur.com/HDT7mhY.jpeg" class="bbCodeImage LbImage" alt="[​IMG]" data-url="https://i.imgur.com/HDT7mhY.jpeg" style=""><br>
<img src="https://i.imgur.com/VJpnhXO.jpeg" class="bbCodeImage LbImage" alt="[​IMG]" data-url="https://i.imgur.com/VJpnhXO.jpeg" style=""><br>
<img src="https://i.imgur.com/JBsTprK.jpeg" class="bbCodeImage LbImage" alt="[​IMG]" data-url="https://i.imgur.com/JBsTprK.jpeg" style=""></span></b></i>​</div></div>
</div><br>
<div style="text-align: center"><span style="font-family: 'Georgia'">
<div class="ToggleTriggerAnchor bbCodeSpoilerContainer">
<button type="button" class="button bbCodeSpoilerButton ToggleTrigger Tooltip JsOnly" data-target="> .SpoilerTarget"><span>Spoiler: <span class="SpoilerTitle">MediaInfo</span></span></button>
<div class="SpoilerTarget bbCodeSpoilerText"><div style="text-align: left">
<div class="bbCodeBlock bbCodeHtml">
<div class="type">HTML:</div>
<pre>General[/FONT][/CENTER]
[FONT=Georgia]
Unique ID                                : 231595911384758961334042372555209377863 (0xAE3BC004CEB5A22C81AB2308DE930847)
Complete name                            : Z:\Queer As Folk S04\Queer.as.Folk.US.S04E01.Just.a.Little.Help.1080p.AMZN.WEB-DL.DDP5.1.x264-NTb.mkv
Format                                   : Matroska
Format version                           : Version 4
File size                                : 5.42 GiB
Duration                                 : 52 min 1 s
Overall bit rate mode                    : Variable
Overall bit rate                         : 14.9 Mb/s
Frame rate                               : 23.976 FPS
Encoded date                             : 2017-08-04 21:06:13 UTC
Writing application                      : mkvmerge v10.0.0 ('To Drown In You') 64bit
Writing library                          : libebml v1.3.4 + libmatroska v1.4.5

Video
ID                                       : 1
Format                                   : AVC
Format/Info                              : Advanced Video Codec
Format profile                           : High@L4
Format settings                          : CABAC / 4 Ref Frames
Format settings, CABAC                   : Yes
Format settings, Reference frames        : 4 frames
Codec ID                                 : V_MPEG4/ISO/AVC
Duration                                 : 52 min 1 s
Bit rate mode                            : Variable
Bit rate                                 : 14.3 Mb/s
Maximum bit rate                         : 15.0 Mb/s
Width                                    : 1 920 pixels
Height                                   : 1 080 pixels
Display aspect ratio                     : 16:9
Frame rate mode                          : Constant
Frame rate                               : 23.976 (24000/1001) FPS
Color space                              : YUV
Chroma subsampling                       : 4:2:0
Bit depth                                : 8 bits
Scan type                                : Progressive
Bits/(Pixel*Frame)                       : 0.287
Stream size                              : 5.18 GiB (96%)
Writing library                          : x264 core 148 r2623 d5b2374
Encoding settings                        : cabac=1 / ref=4 / deblock=1:-1:-1 / analyse=0x3:0x133 / me=umh / subme=9 / psy=1 / psy_rd=1.00:0.15 / mixed_ref=1 / me_range=24 / chroma_me=1 / trellis=2 / 8x8dct=1 / cqm=0 / deadzone=21,11 / fast_pskip=1 / chroma_qp_offset=-3 / threads=34 / lookahead_threads=5 / sliced_threads=0 / nr=150 / decimate=1 / interlaced=0 / bluray_compat=0 / constrained_intra=0 / bframes=8 / b_pyramid=2 / b_adapt=2 / b_bias=0 / direct=3 / weightb=1 / open_gop=0 / weightp=2 / keyint=120 / keyint_min=61 / scenecut=0 / intra_refresh=0 / rc_lookahead=120 / rc=crf / mbtree=1 / crf=18.0 / qcomp=0.60 / qpmin=0 / qpmax=69 / qpstep=4 / vbv_maxrate=15000 / vbv_bufsize=31250 / crf_max=0.0 / nal_hrd=vbr / filler=0 / ip_ratio=1.40 / aq=3:1.00
Default                                  : Yes
Forced                                   : No
Color range                              : Limited
Color primaries                          : BT.709
Transfer characteristics                 : BT.709
Matrix coefficients                      : BT.709

Audio
ID                                       : 2
Format                                   : E-AC-3
Format/Info                              : Enhanced AC-3
Commercial name                          : Dolby Digital Plus
Codec ID                                 : A_EAC3
Duration                                 : 52 min 1 s
Bit rate mode                            : Constant
Bit rate                                 : 640 kb/s
Channel(s)                               : 6 channels
Channel layout                           : L R C LFE Ls Rs
Sampling rate                            : 48.0 kHz
Frame rate                               : 31.250 FPS (1536 SPF)
Compression mode                         : Lossy
Stream size                              : 238 MiB (4%)
Language                                 : English
Service kind                             : Complete Main
Default                                  : Yes
Forced                                   : No
Dialog Normalization                     : -24 dB
compr                                    : -0.28 dB
dialnorm_Average                         : -24 dB
dialnorm_Minimum                         : -24 dB
dialnorm_Maximum                         : -24 dB

Text
ID                                       : 3
Format                                   : UTF-8
Codec ID                                 : S_TEXT/UTF8
Codec ID/Info                            : UTF-8 Plain Text
Duration                                 : 51 min 42 s
Bit rate                                 : 81 b/s
Frame rate                               : 0.338 FPS
Count of elements                        : 1049
Stream size                              : 30.7 KiB (0%)
Language                                 : English
Default                                  : No
Forced                                   : No

General
Unique ID                                : 198173677864458147871432011956940294100 (0x9516DCAE9400DF419A675DC1A541C7D4)
Complete name                            : Z:\Queer As Folk S04\Queer.as.Folk.US.S04E02.Stand.Up.for.Ourselves.1080p.AMZN.WEB-DL.DDP5.1.x264-NTb.mkv
Format                                   : Matroska
Format version                           : Version 4
File size                                : 5.49 GiB
Duration                                 : 52 min 53 s
Overall bit rate mode                    : Variable
Overall bit rate                         : 14.8 Mb/s
Frame rate                               : 23.976 FPS
Encoded date                             : 2017-08-04 21:18:01 UTC
Writing application                      : mkvmerge v10.0.0 ('To Drown In You') 64bit
Writing library                          : libebml v1.3.4 + libmatroska v1.4.5

Video
ID                                       : 1
Format                                   : AVC
Format/Info                              : Advanced Video Codec
Format profile                           : High@L4
Format settings                          : CABAC / 4 Ref Frames
Format settings, CABAC                   : Yes
Format settings, Reference frames        : 4 frames
Codec ID                                 : V_MPEG4/ISO/AVC
Duration                                 : 52 min 53 s
Bit rate mode                            : Variable
Bit rate                                 : 14.2 Mb/s
Maximum bit rate                         : 15.0 Mb/s
Width                                    : 1 920 pixels
Height                                   : 1 080 pixels
Display aspect ratio                     : 16:9
Frame rate mode                          : Constant
Frame rate                               : 23.976 (24000/1001) FPS
Color space                              : YUV
Chroma subsampling                       : 4:2:0
Bit depth                                : 8 bits
Scan type                                : Progressive
Bits/(Pixel*Frame)                       : 0.286
Stream size                              : 5.25 GiB (96%)
Writing library                          : x264 core 148 r2623 d5b2374
Encoding settings                        : cabac=1 / ref=4 / deblock=1:-1:-1 / analyse=0x3:0x133 / me=umh / subme=9 / psy=1 / psy_rd=1.00:0.15 / mixed_ref=1 / me_range=24 / chroma_me=1 / trellis=2 / 8x8dct=1 / cqm=0 / deadzone=21,11 / fast_pskip=1 / chroma_qp_offset=-3 / threads=34 / lookahead_threads=5 / sliced_threads=0 / nr=150 / decimate=1 / interlaced=0 / bluray_compat=0 / constrained_intra=0 / bframes=8 / b_pyramid=2 / b_adapt=2 / b_bias=0 / direct=3 / weightb=1 / open_gop=0 / weightp=2 / keyint=120 / keyint_min=61 / scenecut=0 / intra_refresh=0 / rc_lookahead=120 / rc=crf / mbtree=1 / crf=18.0 / qcomp=0.60 / qpmin=0 / qpmax=69 / qpstep=4 / vbv_maxrate=15000 / vbv_bufsize=31250 / crf_max=0.0 / nal_hrd=vbr / filler=0 / ip_ratio=1.40 / aq=3:1.00
Default                                  : Yes
Forced                                   : No
Color range                              : Limited
Color primaries                          : BT.709
Transfer characteristics                 : BT.709
Matrix coefficients                      : BT.709

Audio
ID                                       : 2
Format                                   : E-AC-3
Format/Info                              : Enhanced AC-3
Commercial name                          : Dolby Digital Plus
Codec ID                                 : A_EAC3
Duration                                 : 52 min 53 s
Bit rate mode                            : Constant
Bit rate                                 : 640 kb/s
Channel(s)                               : 6 channels
Channel layout                           : L R C LFE Ls Rs
Sampling rate                            : 48.0 kHz
Frame rate                               : 31.250 FPS (1536 SPF)
Compression mode                         : Lossy
Stream size                              : 242 MiB (4%)
Language                                 : English
Service kind                             : Complete Main
Default                                  : Yes
Forced                                   : No
Dialog Normalization                     : -24 dB
compr                                    : -0.28 dB
dialnorm_Average                         : -24 dB
dialnorm_Minimum                         : -24 dB
dialnorm_Maximum                         : -24 dB

Text
ID                                       : 3
Format                                   : UTF-8
Codec ID                                 : S_TEXT/UTF8
Codec ID/Info                            : UTF-8 Plain Text
Duration                                 : 52 min 43 s
Bit rate                                 : 82 b/s
Frame rate                               : 0.320 FPS
Count of elements                        : 1013
Stream size                              : 31.7 KiB (0%)
Language                                 : English
Default                                  : No
Forced                                   : No

General
Unique ID                                : 254014990635939962176177545681779697709 (0xBF1981F73E9068218E5600ED8AE2282D)
Complete name                            : Z:\Queer As Folk S04\Queer.as.Folk.US.S04E03.Starting.a.Whole.New.Life.1080p.AMZN.WEB-DL.DDP5.1.x264-NTb.mkv
Format                                   : Matroska
Format version                           : Version 4
File size                                : 4.57 GiB
Duration                                 : 44 min 43 s
Overall bit rate mode                    : Variable
Overall bit rate                         : 14.6 Mb/s
Frame rate                               : 23.976 FPS
Encoded date                             : 2017-08-04 21:27:50 UTC
Writing application                      : mkvmerge v10.0.0 ('To Drown In You') 64bit
Writing library                          : libebml v1.3.4 + libmatroska v1.4.5

Video
ID                                       : 1
Format                                   : AVC
Format/Info                              : Advanced Video Codec
Format profile                           : High@L4
Format settings                          : CABAC / 4 Ref Frames
Format settings, CABAC                   : Yes
Format settings, Reference frames        : 4 frames
Codec ID                                 : V_MPEG4/ISO/AVC
Duration                                 : 44 min 43 s
Bit rate mode                            : Variable
Bit rate                                 : 14.0 Mb/s
Maximum bit rate                         : 15.0 Mb/s
Width                                    : 1 920 pixels
Height                                   : 1 080 pixels
Display aspect ratio                     : 16:9
Active Format Description                : Full frame 16:9 image
Frame rate mode                          : Constant
Frame rate                               : 23.976 (24000/1001) FPS
Color space                              : YUV
Chroma subsampling                       : 4:2:0
Bit depth                                : 8 bits
Scan type                                : Progressive
Bits/(Pixel*Frame)                       : 0.281
Stream size                              : 4.37 GiB (96%)
Writing library                          : x264 core 148 r2623 d5b2374
Encoding settings                        : cabac=1 / ref=4 / deblock=1:-1:-1 / analyse=0x3:0x133 / me=umh / subme=9 / psy=1 / psy_rd=1.00:0.15 / mixed_ref=1 / me_range=24 / chroma_me=1 / trellis=2 / 8x8dct=1 / cqm=0 / deadzone=21,11 / fast_pskip=1 / chroma_qp_offset=-3 / threads=34 / lookahead_threads=5 / sliced_threads=0 / nr=150 / decimate=1 / interlaced=0 / bluray_compat=0 / constrained_intra=0 / bframes=8 / b_pyramid=2 / b_adapt=2 / b_bias=0 / direct=3 / weightb=1 / open_gop=0 / weightp=2 / keyint=120 / keyint_min=61 / scenecut=0 / intra_refresh=0 / rc_lookahead=120 / rc=crf / mbtree=1 / crf=18.0 / qcomp=0.60 / qpmin=0 / qpmax=69 / qpstep=4 / vbv_maxrate=15000 / vbv_bufsize=31250 / crf_max=0.0 / nal_hrd=vbr / filler=0 / ip_ratio=1.40 / aq=3:1.00
Default                                  : Yes
Forced                                   : No
Color range                              : Limited
Color primaries                          : BT.709
Transfer characteristics                 : BT.709
Matrix coefficients                      : BT.709

Audio
ID                                       : 2
Format                                   : E-AC-3
Format/Info                              : Enhanced AC-3
Commercial name                          : Dolby Digital Plus
Codec ID                                 : A_EAC3
Duration                                 : 44 min 43 s
Bit rate mode                            : Constant
Bit rate                                 : 640 kb/s
Channel(s)                               : 6 channels
Channel layout                           : L R C LFE Ls Rs
Sampling rate                            : 48.0 kHz
Frame rate                               : 31.250 FPS (1536 SPF)
Compression mode                         : Lossy
Stream size                              : 205 MiB (4%)
Language                                 : English
Service kind                             : Complete Main
Default                                  : Yes
Forced                                   : No
Dialog Normalization                     : -24 dB
compr                                    : -0.28 dB
dialnorm_Average                         : -24 dB
dialnorm_Minimum                         : -24 dB
dialnorm_Maximum                         : -24 dB

Text
ID                                       : 3
Format                                   : UTF-8
Codec ID                                 : S_TEXT/UTF8
Codec ID/Info                            : UTF-8 Plain Text
Duration                                 : 44 min 32 s
Bit rate                                 : 82 b/s
Frame rate                               : 0.348 FPS
Count of elements                        : 931
Stream size                              : 26.9 KiB (0%)
Language                                 : English
Default                                  : No
Forced                                   : No

General
Unique ID                                : 229611271411042059878497267288731049520 (0xACBD85B6A0D1431F96A93CA5F1145E30)
Complete name                            : Z:\Queer As Folk S04\Queer.as.Folk.US.S04E04.Escalating.Violence.1080p.AMZN.WEB-DL.DDP5.1.x264-NTb.mkv
Format                                   : Matroska
Format version                           : Version 4
File size                                : 4.67 GiB
Duration                                 : 45 min 29 s
Overall bit rate mode                    : Variable
Overall bit rate                         : 14.7 Mb/s
Frame rate                               : 23.976 FPS
Encoded date                             : 2017-08-04 21:37:52 UTC
Writing application                      : mkvmerge v10.0.0 ('To Drown In You') 64bit
Writing library                          : libebml v1.3.4 + libmatroska v1.4.5

Video
ID                                       : 1
Format                                   : AVC
Format/Info                              : Advanced Video Codec
Format profile                           : High@L4
Format settings                          : CABAC / 4 Ref Frames
Format settings, CABAC                   : Yes
Format settings, Reference frames        : 4 frames
Codec ID                                 : V_MPEG4/ISO/AVC
Duration                                 : 45 min 29 s
Bit rate mode                            : Variable
Bit rate                                 : 14.0 Mb/s
Maximum bit rate                         : 15.0 Mb/s
Width                                    : 1 920 pixels
Height                                   : 1 080 pixels
Display aspect ratio                     : 16:9
Frame rate mode                          : Constant
Frame rate                               : 23.976 (24000/1001) FPS
Color space                              : YUV
Chroma subsampling                       : 4:2:0
Bit depth                                : 8 bits
Scan type                                : Progressive
Bits/(Pixel*Frame)                       : 0.283
Stream size                              : 4.46 GiB (96%)
Writing library                          : x264 core 148 r2623 d5b2374
Encoding settings                        : cabac=1 / ref=4 / deblock=1:-1:-1 / analyse=0x3:0x133 / me=umh / subme=9 / psy=1 / psy_rd=1.00:0.15 / mixed_ref=1 / me_range=24 / chroma_me=1 / trellis=2 / 8x8dct=1 / cqm=0 / deadzone=21,11 / fast_pskip=1 / chroma_qp_offset=-3 / threads=34 / lookahead_threads=5 / sliced_threads=0 / nr=150 / decimate=1 / interlaced=0 / bluray_compat=0 / constrained_intra=0 / bframes=8 / b_pyramid=2 / b_adapt=2 / b_bias=0 / direct=3 / weightb=1 / open_gop=0 / weightp=2 / keyint=120 / keyint_min=61 / scenecut=0 / intra_refresh=0 / rc_lookahead=120 / rc=crf / mbtree=1 / crf=18.0 / qcomp=0.60 / qpmin=0 / qpmax=69 / qpstep=4 / vbv_maxrate=15000 / vbv_bufsize=31250 / crf_max=0.0 / nal_hrd=vbr / filler=0 / ip_ratio=1.40 / aq=3:1.00
Default                                  : Yes
Forced                                   : No
Color range                              : Limited
Color primaries                          : BT.709
Transfer characteristics                 : BT.709
Matrix coefficients                      : BT.709

Audio
ID                                       : 2
Format                                   : E-AC-3
Format/Info                              : Enhanced AC-3
Commercial name                          : Dolby Digital Plus
Codec ID                                 : A_EAC3
Duration                                 : 45 min 29 s
Bit rate mode                            : Constant
Bit rate                                 : 640 kb/s
Channel(s)                               : 6 channels
Channel layout                           : L R C LFE Ls Rs
Sampling rate                            : 48.0 kHz
Frame rate                               : 31.250 FPS (1536 SPF)
Compression mode                         : Lossy
Stream size                              : 208 MiB (4%)
Language                                 : English
Service kind                             : Complete Main
Default                                  : Yes
Forced                                   : No
Dialog Normalization                     : -24 dB
compr                                    : -0.28 dB
dialnorm_Average                         : -24 dB
dialnorm_Minimum                         : -24 dB
dialnorm_Maximum                         : -24 dB

Text
ID                                       : 3
Format                                   : UTF-8
Codec ID                                 : S_TEXT/UTF8
Codec ID/Info                            : UTF-8 Plain Text
Duration                                 : 45 min 8 s
Bit rate                                 : 88 b/s
Frame rate                               : 0.371 FPS
Count of elements                        : 1006
Stream size                              : 29.1 KiB (0%)
Language                                 : English
Default                                  : No
Forced                                   : No

General
Unique ID                                : 204885659050600110840780256138996114606 (0x9A238AE772862DA487F074815F8E64AE)
Complete name                            : Z:\Queer As Folk S04\Queer.as.Folk.US.S04E05.How.Far.You.Can.Go.1080p.AMZN.WEB-DL.DDP5.1.x264-NTb.mkv
Format                                   : Matroska
Format version                           : Version 4
File size                                : 4.93 GiB
Duration                                 : 47 min 22 s
Overall bit rate mode                    : Variable
Overall bit rate                         : 14.9 Mb/s
Frame rate                               : 23.976 FPS
Encoded date                             : 2017-08-04 21:48:29 UTC
Writing application                      : mkvmerge v10.0.0 ('To Drown In You') 64bit
Writing library                          : libebml v1.3.4 + libmatroska v1.4.5

Video
ID                                       : 1
Format                                   : AVC
Format/Info                              : Advanced Video Codec
Format profile                           : High@L4
Format settings                          : CABAC / 4 Ref Frames
Format settings, CABAC                   : Yes
Format settings, Reference frames        : 4 frames
Codec ID                                 : V_MPEG4/ISO/AVC
Duration                                 : 47 min 22 s
Bit rate mode                            : Variable
Bit rate                                 : 14.3 Mb/s
Maximum bit rate                         : 15.0 Mb/s
Width                                    : 1 920 pixels
Height                                   : 1 080 pixels
Display aspect ratio                     : 16:9
Frame rate mode                          : Constant
Frame rate                               : 23.976 (24000/1001) FPS
Color space                              : YUV
Chroma subsampling                       : 4:2:0
Bit depth                                : 8 bits
Scan type                                : Progressive
Bits/(Pixel*Frame)                       : 0.287
Stream size                              : 4.72 GiB (96%)
Writing library                          : x264 core 148 r2623 d5b2374
Encoding settings                        : cabac=1 / ref=4 / deblock=1:-1:-1 / analyse=0x3:0x133 / me=umh / subme=9 / psy=1 / psy_rd=1.00:0.15 / mixed_ref=1 / me_range=24 / chroma_me=1 / trellis=2 / 8x8dct=1 / cqm=0 / deadzone=21,11 / fast_pskip=1 / chroma_qp_offset=-3 / threads=34 / lookahead_threads=5 / sliced_threads=0 / nr=150 / decimate=1 / interlaced=0 / bluray_compat=0 / constrained_intra=0 / bframes=8 / b_pyramid=2 / b_adapt=2 / b_bias=0 / direct=3 / weightb=1 / open_gop=0 / weightp=2 / keyint=120 / keyint_min=61 / scenecut=0 / intra_refresh=0 / rc_lookahead=120 / rc=crf / mbtree=1 / crf=18.0 / qcomp=0.60 / qpmin=0 / qpmax=69 / qpstep=4 / vbv_maxrate=15000 / vbv_bufsize=31250 / crf_max=0.0 / nal_hrd=vbr / filler=0 / ip_ratio=1.40 / aq=3:1.00
Default                                  : Yes
Forced                                   : No
Color range                              : Limited
Color primaries                          : BT.709
Transfer characteristics                 : BT.709
Matrix coefficients                      : BT.709

Audio
ID                                       : 2
Format                                   : E-AC-3
Format/Info                              : Enhanced AC-3
Commercial name                          : Dolby Digital Plus
Codec ID                                 : A_EAC3
Duration                                 : 47 min 22 s
Bit rate mode                            : Constant
Bit rate                                 : 640 kb/s
Channel(s)                               : 6 channels
Channel layout                           : L R C LFE Ls Rs
Sampling rate                            : 48.0 kHz
Frame rate                               : 31.250 FPS (1536 SPF)
Compression mode                         : Lossy
Stream size                              : 217 MiB (4%)
Language                                 : English
Service kind                             : Complete Main
Default                                  : Yes
Forced                                   : No
Dialog Normalization                     : -24 dB
compr                                    : -0.28 dB
dialnorm_Average                         : -24 dB
dialnorm_Minimum                         : -24 dB
dialnorm_Maximum                         : -24 dB

Text
ID                                       : 3
Format                                   : UTF-8
Codec ID                                 : S_TEXT/UTF8
Codec ID/Info                            : UTF-8 Plain Text
Duration                                 : 47 min 2 s
Bit rate                                 : 80 b/s
Frame rate                               : 0.323 FPS
Count of elements                        : 911
Stream size                              : 27.7 KiB (0%)
Language                                 : English
Default                                  : No
Forced                                   : No

General
Unique ID                                : 200914201031799991963041916184587319771 (0x9726AAE7F696765698871D7D8E36B9DB)
Complete name                            : Z:\Queer As Folk S04\Queer.as.Folk.US.S04E06.Death.In.the.Family.1080p.AMZN.WEB-DL.DDP5.1.x264-NTb.mkv
Format                                   : Matroska
Format version                           : Version 4
File size                                : 5.52 GiB
Duration                                 : 53 min 15 s
Overall bit rate mode                    : Variable
Overall bit rate                         : 14.8 Mb/s
Frame rate                               : 23.976 FPS
Encoded date                             : 2017-08-04 22:00:19 UTC
Writing application                      : mkvmerge v10.0.0 ('To Drown In You') 64bit
Writing library                          : libebml v1.3.4 + libmatroska v1.4.5

Video
ID                                       : 1
Format                                   : AVC
Format/Info                              : Advanced Video Codec
Format profile                           : High@L4
Format settings                          : CABAC / 4 Ref Frames
Format settings, CABAC                   : Yes
Format settings, Reference frames        : 4 frames
Codec ID                                 : V_MPEG4/ISO/AVC
Duration                                 : 53 min 15 s
Bit rate mode                            : Variable
Bit rate                                 : 14.2 Mb/s
Maximum bit rate                         : 15.0 Mb/s
Width                                    : 1 920 pixels
Height                                   : 1 080 pixels
Display aspect ratio                     : 16:9
Frame rate mode                          : Constant
Frame rate                               : 23.976 (24000/1001) FPS
Color space                              : YUV
Chroma subsampling                       : 4:2:0
Bit depth                                : 8 bits
Scan type                                : Progressive
Bits/(Pixel*Frame)                       : 0.286
Stream size                              : 5.29 GiB (96%)
Writing library                          : x264 core 148 r2623 d5b2374
Encoding settings                        : cabac=1 / ref=4 / deblock=1:-1:-1 / analyse=0x3:0x133 / me=umh / subme=9 / psy=1 / psy_rd=1.00:0.15 / mixed_ref=1 / me_range=24 / chroma_me=1 / trellis=2 / 8x8dct=1 / cqm=0 / deadzone=21,11 / fast_pskip=1 / chroma_qp_offset=-3 / threads=34 / lookahead_threads=5 / sliced_threads=0 / nr=150 / decimate=1 / interlaced=0 / bluray_compat=0 / constrained_intra=0 / bframes=8 / b_pyramid=2 / b_adapt=2 / b_bias=0 / direct=3 / weightb=1 / open_gop=0 / weightp=2 / keyint=120 / keyint_min=61 / scenecut=0 / intra_refresh=0 / rc_lookahead=120 / rc=crf / mbtree=1 / crf=18.0 / qcomp=0.60 / qpmin=0 / qpmax=69 / qpstep=4 / vbv_maxrate=15000 / vbv_bufsize=31250 / crf_max=0.0 / nal_hrd=vbr / filler=0 / ip_ratio=1.40 / aq=3:1.00
Default                                  : Yes
Forced                                   : No
Color range                              : Limited
Color primaries                          : BT.709
Transfer characteristics                 : BT.709
Matrix coefficients                      : BT.709

Audio
ID                                       : 2
Format                                   : E-AC-3
Format/Info                              : Enhanced AC-3
Commercial name                          : Dolby Digital Plus
Codec ID                                 : A_EAC3
Duration                                 : 53 min 15 s
Bit rate mode                            : Constant
Bit rate                                 : 640 kb/s
Channel(s)                               : 6 channels
Channel layout                           : L R C LFE Ls Rs
Sampling rate                            : 48.0 kHz
Frame rate                               : 31.250 FPS (1536 SPF)
Compression mode                         : Lossy
Stream size                              : 244 MiB (4%)
Language                                 : English
Service kind                             : Complete Main
Default                                  : Yes
Forced                                   : No
Dialog Normalization                     : -24 dB
compr                                    : -0.28 dB
dialnorm_Average                         : -24 dB
dialnorm_Minimum                         : -24 dB
dialnorm_Maximum                         : -24 dB

Text
ID                                       : 3
Format                                   : UTF-8
Codec ID                                 : S_TEXT/UTF8
Codec ID/Info                            : UTF-8 Plain Text
Duration                                 : 50 min 46 s
Bit rate                                 : 74 b/s
Frame rate                               : 0.302 FPS
Count of elements                        : 921
Stream size                              : 27.7 KiB (0%)
Language                                 : English
Default                                  : No
Forced                                   : No

General
Unique ID                                : 208846128622125955916720104911492183536 (0x9D1E4D213A628DCAB0DC00C1C83175F0)
Complete name                            : Z:\Queer As Folk S04\Queer.as.Folk.US.S04E07.Preponderance.of.Death.1080p.AMZN.WEB-DL.DDP5.1.x264-NTb.mkv
Format                                   : Matroska
Format version                           : Version 4
File size                                : 5.59 GiB
Duration                                 : 53 min 57 s
Overall bit rate mode                    : Variable
Overall bit rate                         : 14.8 Mb/s
Frame rate                               : 23.976 FPS
Encoded date                             : 2017-08-04 22:12:17 UTC
Writing application                      : mkvmerge v10.0.0 ('To Drown In You') 64bit
Writing library                          : libebml v1.3.4 + libmatroska v1.4.5

Video
ID                                       : 1
Format                                   : AVC
Format/Info                              : Advanced Video Codec
Format profile                           : High@L4
Format settings                          : CABAC / 4 Ref Frames
Format settings, CABAC                   : Yes
Format settings, Reference frames        : 4 frames
Codec ID                                 : V_MPEG4/ISO/AVC
Duration                                 : 53 min 57 s
Bit rate mode                            : Variable
Bit rate                                 : 14.2 Mb/s
Maximum bit rate                         : 15.0 Mb/s
Width                                    : 1 920 pixels
Height                                   : 1 080 pixels
Display aspect ratio                     : 16:9
Frame rate mode                          : Constant
Frame rate                               : 23.976 (24000/1001) FPS
Color space                              : YUV
Chroma subsampling                       : 4:2:0
Bit depth                                : 8 bits
Scan type                                : Progressive
Bits/(Pixel*Frame)                       : 0.286
Stream size                              : 5.35 GiB (96%)
Writing library                          : x264 core 148 r2623 d5b2374
Encoding settings                        : cabac=1 / ref=4 / deblock=1:-1:-1 / analyse=0x3:0x133 / me=umh / subme=9 / psy=1 / psy_rd=1.00:0.15 / mixed_ref=1 / me_range=24 / chroma_me=1 / trellis=2 / 8x8dct=1 / cqm=0 / deadzone=21,11 / fast_pskip=1 / chroma_qp_offset=-3 / threads=34 / lookahead_threads=5 / sliced_threads=0 / nr=150 / decimate=1 / interlaced=0 / bluray_compat=0 / constrained_intra=0 / bframes=8 / b_pyramid=2 / b_adapt=2 / b_bias=0 / direct=3 / weightb=1 / open_gop=0 / weightp=2 / keyint=120 / keyint_min=61 / scenecut=0 / intra_refresh=0 / rc_lookahead=120 / rc=crf / mbtree=1 / crf=18.0 / qcomp=0.60 / qpmin=0 / qpmax=69 / qpstep=4 / vbv_maxrate=15000 / vbv_bufsize=31250 / crf_max=0.0 / nal_hrd=vbr / filler=0 / ip_ratio=1.40 / aq=3:1.00
Default                                  : Yes
Forced                                   : No
Color range                              : Limited
Color primaries                          : BT.709
Transfer characteristics                 : BT.709
Matrix coefficients                      : BT.709

Audio
ID                                       : 2
Format                                   : E-AC-3
Format/Info                              : Enhanced AC-3
Commercial name                          : Dolby Digital Plus
Codec ID                                 : A_EAC3
Duration                                 : 53 min 57 s
Bit rate mode                            : Constant
Bit rate                                 : 640 kb/s
Channel(s)                               : 6 channels
Channel layout                           : L R C LFE Ls Rs
Sampling rate                            : 48.0 kHz
Frame rate                               : 31.250 FPS (1536 SPF)
Compression mode                         : Lossy
Stream size                              : 247 MiB (4%)
Language                                 : English
Service kind                             : Complete Main
Default                                  : Yes
Forced                                   : No
Dialog Normalization                     : -24 dB
compr                                    : -0.28 dB
dialnorm_Average                         : -24 dB
dialnorm_Minimum                         : -24 dB
dialnorm_Maximum                         : -24 dB

Text
ID                                       : 3
Format                                   : UTF-8
Codec ID                                 : S_TEXT/UTF8
Codec ID/Info                            : UTF-8 Plain Text
Duration                                 : 53 min 30 s
Bit rate                                 : 70 b/s
Frame rate                               : 0.302 FPS
Count of elements                        : 970
Stream size                              : 27.7 KiB (0%)
Language                                 : English
Default                                  : No
Forced                                   : No

General
Unique ID                                : 233171924677369007757727490545896666175 (0xAF6B47792B7A8696AA9764C6B7B4343F)
Complete name                            : Z:\Queer As Folk S04\Queer.as.Folk.US.S04E08.Two.Kinds.of.Lies.1080p.AMZN.WEB-DL.DDP5.1.H.264-NTb.mkv
Format                                   : Matroska
Format version                           : Version 4
File size                                : 3.67 GiB
Duration                                 : 53 min 5 s
Overall bit rate                         : 9 896 kb/s
Frame rate                               : 23.976 FPS
Encoded date                             : 2017-08-04 22:20:30 UTC
Writing application                      : mkvmerge v10.0.0 ('To Drown In You') 64bit
Writing library                          : libebml v1.3.4 + libmatroska v1.4.5

Video
ID                                       : 1
Format                                   : AVC
Format/Info                              : Advanced Video Codec
Format profile                           : High@L4
Format settings                          : CABAC / 4 Ref Frames
Format settings, CABAC                   : Yes
Format settings, Reference frames        : 4 frames
Codec ID                                 : V_MPEG4/ISO/AVC
Duration                                 : 53 min 5 s
Bit rate mode                            : Constant
Bit rate                                 : 10 000 kb/s
Width                                    : 1 920 pixels
Height                                   : 1 080 pixels
Display aspect ratio                     : 16:9
Frame rate mode                          : Constant
Frame rate                               : 23.976 (24000/1001) FPS
Color space                              : YUV
Chroma subsampling                       : 4:2:0
Bit depth                                : 8 bits
Scan type                                : Progressive
Bits/(Pixel*Frame)                       : 0.201
Stream size                              : 3.57 GiB (97%)
Language                                 : English
Default                                  : Yes
Forced                                   : No
Color range                              : Limited
Color primaries                          : BT.709
Transfer characteristics                 : BT.709
Matrix coefficients                      : BT.709

Audio
ID                                       : 2
Format                                   : E-AC-3
Format/Info                              : Enhanced AC-3
Commercial name                          : Dolby Digital Plus
Codec ID                                 : A_EAC3
Duration                                 : 53 min 5 s
Bit rate mode                            : Constant
Bit rate                                 : 256 kb/s
Channel(s)                               : 6 channels
Channel layout                           : L R C LFE Ls Rs
Sampling rate                            : 48.0 kHz
Frame rate                               : 31.250 FPS (1536 SPF)
Compression mode                         : Lossy
Stream size                              : 97.2 MiB (3%)
Language                                 : English
Service kind                             : Complete Main
Default                                  : Yes
Forced                                   : No
Dialog Normalization                     : -31 dB
compr                                    : -0.28 dB
mixlevel                                 : 80 dB
dmixmod                                  : Lo/Ro
ltrtcmixlev                              : -3.0 dB
ltrtsurmixlev                            : -3.0 dB
lorocmixlev                              : -3.0 dB
lorosurmixlev                            : -3.0 dB
dialnorm_Average                         : -31 dB
dialnorm_Minimum                         : -31 dB
dialnorm_Maximum                         : -31 dB

Text
ID                                       : 3
Format                                   : UTF-8
Codec ID                                 : S_TEXT/UTF8
Codec ID/Info                            : UTF-8 Plain Text
Duration                                 : 52 min 49 s
Bit rate                                 : 77 b/s
Frame rate                               : 0.331 FPS
Count of elements                        : 1048
Stream size                              : 30.2 KiB (0%)
Language                                 : English
Default                                  : No
Forced                                   : No

General
Unique ID                                : 215151281279073400406287752714049299262 (0xA1DCA12825F8B0E3909C3542F3A8233E)
Complete name                            : Z:\Queer As Folk S04\Queer.as.Folk.US.S04E09.Have.Some.Balls.1080p.AMZN.WEB-DL.DDP5.1.x264-NTb.mkv
Format                                   : Matroska
Format version                           : Version 4
File size                                : 5.20 GiB
Duration                                 : 50 min 29 s
Overall bit rate mode                    : Variable
Overall bit rate                         : 14.7 Mb/s
Frame rate                               : 23.976 FPS
Encoded date                             : 2017-08-04 22:31:29 UTC
Writing application                      : mkvmerge v10.0.0 ('To Drown In You') 64bit
Writing library                          : libebml v1.3.4 + libmatroska v1.4.5

Video
ID                                       : 1
Format                                   : AVC
Format/Info                              : Advanced Video Codec
Format profile                           : High@L4
Format settings                          : CABAC / 4 Ref Frames
Format settings, CABAC                   : Yes
Format settings, Reference frames        : 4 frames
Codec ID                                 : V_MPEG4/ISO/AVC
Duration                                 : 50 min 29 s
Bit rate mode                            : Variable
Bit rate                                 : 14.1 Mb/s
Maximum bit rate                         : 15.0 Mb/s
Width                                    : 1 920 pixels
Height                                   : 1 080 pixels
Display aspect ratio                     : 16:9
Frame rate mode                          : Constant
Frame rate                               : 23.976 (24000/1001) FPS
Color space                              : YUV
Chroma subsampling                       : 4:2:0
Bit depth                                : 8 bits
Scan type                                : Progressive
Bits/(Pixel*Frame)                       : 0.284
Stream size                              : 4.97 GiB (96%)
Writing library                          : x264 core 148 r2623 d5b2374
Encoding settings                        : cabac=1 / ref=4 / deblock=1:-1:-1 / analyse=0x3:0x133 / me=umh / subme=9 / psy=1 / psy_rd=1.00:0.15 / mixed_ref=1 / me_range=24 / chroma_me=1 / trellis=2 / 8x8dct=1 / cqm=0 / deadzone=21,11 / fast_pskip=1 / chroma_qp_offset=-3 / threads=34 / lookahead_threads=5 / sliced_threads=0 / nr=150 / decimate=1 / interlaced=0 / bluray_compat=0 / constrained_intra=0 / bframes=8 / b_pyramid=2 / b_adapt=2 / b_bias=0 / direct=3 / weightb=1 / open_gop=0 / weightp=2 / keyint=120 / keyint_min=61 / scenecut=0 / intra_refresh=0 / rc_lookahead=120 / rc=crf / mbtree=1 / crf=18.0 / qcomp=0.60 / qpmin=0 / qpmax=69 / qpstep=4 / vbv_maxrate=15000 / vbv_bufsize=31250 / crf_max=0.0 / nal_hrd=vbr / filler=0 / ip_ratio=1.40 / aq=3:1.00
Default                                  : Yes
Forced                                   : No
Color range                              : Limited
Color primaries                          : BT.709
Transfer characteristics                 : BT.709
Matrix coefficients                      : BT.709

Audio
ID                                       : 2
Format                                   : E-AC-3
Format/Info                              : Enhanced AC-3
Commercial name                          : Dolby Digital Plus
Codec ID                                 : A_EAC3
Duration                                 : 50 min 29 s
Bit rate mode                            : Constant
Bit rate                                 : 640 kb/s
Channel(s)                               : 6 channels
Channel layout                           : L R C LFE Ls Rs
Sampling rate                            : 48.0 kHz
Frame rate                               : 31.250 FPS (1536 SPF)
Compression mode                         : Lossy
Stream size                              : 231 MiB (4%)
Language                                 : English
Service kind                             : Complete Main
Default                                  : Yes
Forced                                   : No
Dialog Normalization                     : -24 dB
compr                                    : -0.28 dB
dialnorm_Average                         : -24 dB
dialnorm_Minimum                         : -24 dB
dialnorm_Maximum                         : -24 dB

Text
ID                                       : 3
Format                                   : UTF-8
Codec ID                                 : S_TEXT/UTF8
Codec ID/Info                            : UTF-8 Plain Text
Duration                                 : 50 min 15 s
Bit rate                                 : 80 b/s
Frame rate                               : 0.321 FPS
Count of elements                        : 968
Stream size                              : 29.6 KiB (0%)
Language                                 : English
Default                                  : No
Forced                                   : No

General
Unique ID                                : 194318579967230060548669851037502695528 (0x923065AE4EAFDA98BBEBD9D474566868)
Complete name                            : Z:\Queer As Folk S04\Queer.as.Folk.US.S04E10.The.Snake.In.Paradise.1080p.AMZN.WEB-DL.DDP5.1.x264-NTb.mkv
Format                                   : Matroska
Format version                           : Version 4
File size                                : 5.92 GiB
Duration                                 : 57 min 11 s
Overall bit rate mode                    : Variable
Overall bit rate                         : 14.8 Mb/s
Frame rate                               : 23.976 FPS
Encoded date                             : 2017-08-04 22:43:59 UTC
Writing application                      : mkvmerge v10.0.0 ('To Drown In You') 64bit
Writing library                          : libebml v1.3.4 + libmatroska v1.4.5

Video
ID                                       : 1
Format                                   : AVC
Format/Info                              : Advanced Video Codec
Format profile                           : High@L4
Format settings                          : CABAC / 4 Ref Frames
Format settings, CABAC                   : Yes
Format settings, Reference frames        : 4 frames
Codec ID                                 : V_MPEG4/ISO/AVC
Duration                                 : 57 min 11 s
Bit rate mode                            : Variable
Bit rate                                 : 14.2 Mb/s
Maximum bit rate                         : 15.0 Mb/s
Width                                    : 1 920 pixels
Height                                   : 1 080 pixels
Display aspect ratio                     : 16:9
Frame rate mode                          : Constant
Frame rate                               : 23.976 (24000/1001) FPS
Color space                              : YUV
Chroma subsampling                       : 4:2:0
Bit depth                                : 8 bits
Scan type                                : Progressive
Bits/(Pixel*Frame)                       : 0.285
Stream size                              : 5.66 GiB (96%)
Writing library                          : x264 core 148 r2623 d5b2374
Encoding settings                        : cabac=1 / ref=4 / deblock=1:-1:-1 / analyse=0x3:0x133 / me=umh / subme=9 / psy=1 / psy_rd=1.00:0.15 / mixed_ref=1 / me_range=24 / chroma_me=1 / trellis=2 / 8x8dct=1 / cqm=0 / deadzone=21,11 / fast_pskip=1 / chroma_qp_offset=-3 / threads=34 / lookahead_threads=5 / sliced_threads=0 / nr=150 / decimate=1 / interlaced=0 / bluray_compat=0 / constrained_intra=0 / bframes=8 / b_pyramid=2 / b_adapt=2 / b_bias=0 / direct=3 / weightb=1 / open_gop=0 / weightp=2 / keyint=120 / keyint_min=61 / scenecut=0 / intra_refresh=0 / rc_lookahead=120 / rc=crf / mbtree=1 / crf=18.0 / qcomp=0.60 / qpmin=0 / qpmax=69 / qpstep=4 / vbv_maxrate=15000 / vbv_bufsize=31250 / crf_max=0.0 / nal_hrd=vbr / filler=0 / ip_ratio=1.40 / aq=3:1.00
Default                                  : Yes
Forced                                   : No
Color range                              : Limited
Color primaries                          : BT.709
Transfer characteristics                 : BT.709
Matrix coefficients                      : BT.709

Audio
ID                                       : 2
Format                                   : E-AC-3
Format/Info                              : Enhanced AC-3
Commercial name                          : Dolby Digital Plus
Codec ID                                 : A_EAC3
Duration                                 : 57 min 11 s
Bit rate mode                            : Constant
Bit rate                                 : 640 kb/s
Channel(s)                               : 6 channels
Channel layout                           : L R C LFE Ls Rs
Sampling rate                            : 48.0 kHz
Frame rate                               : 31.250 FPS (1536 SPF)
Compression mode                         : Lossy
Stream size                              : 262 MiB (4%)
Language                                 : English
Service kind                             : Complete Main
Default                                  : Yes
Forced                                   : No
Dialog Normalization                     : -24 dB
compr                                    : -0.28 dB
dialnorm_Average                         : -24 dB
dialnorm_Minimum                         : -24 dB
dialnorm_Maximum                         : -24 dB

Text
ID                                       : 3
Format                                   : UTF-8
Codec ID                                 : S_TEXT/UTF8
Codec ID/Info                            : UTF-8 Plain Text
Duration                                 : 56 min 59 s
Bit rate                                 : 73 b/s
Frame rate                               : 0.308 FPS
Count of elements                        : 1053
Stream size                              : 30.5 KiB (0%)
Language                                 : English
Default                                  : No
Forced                                   : No

General
Unique ID                                : 171975470076663887047620171214358643913 (0x8161455001FDB721AFBA8259728104C9)
Complete name                            : Z:\Queer As Folk S04\Queer.as.Folk.US.S04E11.Gay.or.Straight.Thats.the.Question.1080p.AMZN.WEB-DL.DDP5.1.x264-NTb.mkv
Format                                   : Matroska
Format version                           : Version 4
File size                                : 5.42 GiB
Duration                                 : 52 min 21 s
Overall bit rate mode                    : Variable
Overall bit rate                         : 14.8 Mb/s
Frame rate                               : 23.976 FPS
Encoded date                             : 2017-08-04 22:55:32 UTC
Writing application                      : mkvmerge v10.0.0 ('To Drown In You') 64bit
Writing library                          : libebml v1.3.4 + libmatroska v1.4.5

Video
ID                                       : 1
Format                                   : AVC
Format/Info                              : Advanced Video Codec
Format profile                           : High@L4
Format settings                          : CABAC / 4 Ref Frames
Format settings, CABAC                   : Yes
Format settings, Reference frames        : 4 frames
Codec ID                                 : V_MPEG4/ISO/AVC
Duration                                 : 52 min 21 s
Bit rate mode                            : Variable
Bit rate                                 : 14.2 Mb/s
Maximum bit rate                         : 15.0 Mb/s
Width                                    : 1 920 pixels
Height                                   : 1 080 pixels
Display aspect ratio                     : 16:9
Frame rate mode                          : Constant
Frame rate                               : 23.976 (24000/1001) FPS
Color space                              : YUV
Chroma subsampling                       : 4:2:0
Bit depth                                : 8 bits
Scan type                                : Progressive
Bits/(Pixel*Frame)                       : 0.285
Stream size                              : 5.18 GiB (96%)
Writing library                          : x264 core 148 r2623 d5b2374
Encoding settings                        : cabac=1 / ref=4 / deblock=1:-1:-1 / analyse=0x3:0x133 / me=umh / subme=9 / psy=1 / psy_rd=1.00:0.15 / mixed_ref=1 / me_range=24 / chroma_me=1 / trellis=2 / 8x8dct=1 / cqm=0 / deadzone=21,11 / fast_pskip=1 / chroma_qp_offset=-3 / threads=34 / lookahead_threads=5 / sliced_threads=0 / nr=150 / decimate=1 / interlaced=0 / bluray_compat=0 / constrained_intra=0 / bframes=8 / b_pyramid=2 / b_adapt=2 / b_bias=0 / direct=3 / weightb=1 / open_gop=0 / weightp=2 / keyint=120 / keyint_min=61 / scenecut=0 / intra_refresh=0 / rc_lookahead=120 / rc=crf / mbtree=1 / crf=18.0 / qcomp=0.60 / qpmin=0 / qpmax=69 / qpstep=4 / vbv_maxrate=15000 / vbv_bufsize=31250 / crf_max=0.0 / nal_hrd=vbr / filler=0 / ip_ratio=1.40 / aq=3:1.00
Default                                  : Yes
Forced                                   : No
Color range                              : Limited
Color primaries                          : BT.709
Transfer characteristics                 : BT.709
Matrix coefficients                      : BT.709

Audio
ID                                       : 2
Format                                   : E-AC-3
Format/Info                              : Enhanced AC-3
Commercial name                          : Dolby Digital Plus
Codec ID                                 : A_EAC3
Duration                                 : 52 min 21 s
Bit rate mode                            : Constant
Bit rate                                 : 640 kb/s
Channel(s)                               : 6 channels
Channel layout                           : L R C LFE Ls Rs
Sampling rate                            : 48.0 kHz
Frame rate                               : 31.250 FPS (1536 SPF)
Compression mode                         : Lossy
Stream size                              : 240 MiB (4%)
Language                                 : English
Service kind                             : Complete Main
Default                                  : Yes
Forced                                   : No
Dialog Normalization                     : -24 dB
compr                                    : -0.28 dB
dialnorm_Average                         : -24 dB
dialnorm_Minimum                         : -24 dB
dialnorm_Maximum                         : -24 dB

Text
ID                                       : 3
Format                                   : UTF-8
Codec ID                                 : S_TEXT/UTF8
Codec ID/Info                            : UTF-8 Plain Text
Duration                                 : 52 min 10 s
Bit rate                                 : 83 b/s
Frame rate                               : 0.356 FPS
Count of elements                        : 1113
Stream size                              : 31.7 KiB (0%)
Language                                 : English
Default                                  : No
Forced                                   : No

General
Unique ID                                : 205483093187498258172406388402882380469 (0x9A969AAE645DAD5CA44F8EC0291482B5)
Complete name                            : Z:\Queer As Folk S04\Queer.as.Folk.US.S04E12.Irritation.and.Separation.1080p.AMZN.WEB-DL.DDP5.1.x264-NTb.mkv
Format                                   : Matroska
Format version                           : Version 4
File size                                : 5.38 GiB
Duration                                 : 52 min 6 s
Overall bit rate mode                    : Variable
Overall bit rate                         : 14.8 Mb/s
Frame rate                               : 23.976 FPS
Encoded date                             : 2017-08-04 23:06:57 UTC
Writing application                      : mkvmerge v10.0.0 ('To Drown In You') 64bit
Writing library                          : libebml v1.3.4 + libmatroska v1.4.5

Video
ID                                       : 1
Format                                   : AVC
Format/Info                              : Advanced Video Codec
Format profile                           : High@L4
Format settings                          : CABAC / 4 Ref Frames
Format settings, CABAC                   : Yes
Format settings, Reference frames        : 4 frames
Codec ID                                 : V_MPEG4/ISO/AVC
Duration                                 : 52 min 6 s
Bit rate mode                            : Variable
Bit rate                                 : 14.1 Mb/s
Maximum bit rate                         : 15.0 Mb/s
Width                                    : 1 920 pixels
Height                                   : 1 080 pixels
Display aspect ratio                     : 16:9
Frame rate mode                          : Constant
Frame rate                               : 23.976 (24000/1001) FPS
Color space                              : YUV
Chroma subsampling                       : 4:2:0
Bit depth                                : 8 bits
Scan type                                : Progressive
Bits/(Pixel*Frame)                       : 0.285
Stream size                              : 5.15 GiB (96%)
Writing library                          : x264 core 148 r2623 d5b2374
Encoding settings                        : cabac=1 / ref=4 / deblock=1:-1:-1 / analyse=0x3:0x133 / me=umh / subme=9 / psy=1 / psy_rd=1.00:0.15 / mixed_ref=1 / me_range=24 / chroma_me=1 / trellis=2 / 8x8dct=1 / cqm=0 / deadzone=21,11 / fast_pskip=1 / chroma_qp_offset=-3 / threads=34 / lookahead_threads=5 / sliced_threads=0 / nr=150 / decimate=1 / interlaced=0 / bluray_compat=0 / constrained_intra=0 / bframes=8 / b_pyramid=2 / b_adapt=2 / b_bias=0 / direct=3 / weightb=1 / open_gop=0 / weightp=2 / keyint=120 / keyint_min=61 / scenecut=0 / intra_refresh=0 / rc_lookahead=120 / rc=crf / mbtree=1 / crf=18.0 / qcomp=0.60 / qpmin=0 / qpmax=69 / qpstep=4 / vbv_maxrate=15000 / vbv_bufsize=31250 / crf_max=0.0 / nal_hrd=vbr / filler=0 / ip_ratio=1.40 / aq=3:1.00
Default                                  : Yes
Forced                                   : No
Color range                              : Limited
Color primaries                          : BT.709
Transfer characteristics                 : BT.709
Matrix coefficients                      : BT.709

Audio
ID                                       : 2
Format                                   : E-AC-3
Format/Info                              : Enhanced AC-3
Commercial name                          : Dolby Digital Plus
Codec ID                                 : A_EAC3
Duration                                 : 52 min 6 s
Bit rate mode                            : Constant
Bit rate                                 : 640 kb/s
Channel(s)                               : 6 channels
Channel layout                           : L R C LFE Ls Rs
Sampling rate                            : 48.0 kHz
Frame rate                               : 31.250 FPS (1536 SPF)
Compression mode                         : Lossy
Stream size                              : 239 MiB (4%)
Language                                 : English
Service kind                             : Complete Main
Default                                  : Yes
Forced                                   : No
Dialog Normalization                     : -24 dB
compr                                    : -0.28 dB
dialnorm_Average                         : -24 dB
dialnorm_Minimum                         : -24 dB
dialnorm_Maximum                         : -24 dB

Text
ID                                       : 3
Format                                   : UTF-8
Codec ID                                 : S_TEXT/UTF8
Codec ID/Info                            : UTF-8 Plain Text
Duration                                 : 51 min 55 s
Bit rate                                 : 80 b/s
Frame rate                               : 0.325 FPS
Count of elements                        : 1014
Stream size                              : 30.7 KiB (0%)
Language                                 : English
Default                                  : No
Forced                                   : No

General
Unique ID                                : 204863811419216439939880534252915531284 (0x9A1F55BB922F6690A1909542EDC41E14)
Complete name                            : Z:\Queer As Folk S04\Queer.as.Folk.US.S04E13.Proposal.of.Two.Kinds.1080p.AMZN.WEB-DL.DDP5.1.x264-NTb.mkv
Format                                   : Matroska
Format version                           : Version 4
File size                                : 4.96 GiB
Duration                                 : 48 min 17 s
Overall bit rate mode                    : Variable
Overall bit rate                         : 14.7 Mb/s
Frame rate                               : 23.976 FPS
Encoded date                             : 2017-08-04 23:17:31 UTC
Writing application                      : mkvmerge v10.0.0 ('To Drown In You') 64bit
Writing library                          : libebml v1.3.4 + libmatroska v1.4.5

Video
ID                                       : 1
Format                                   : AVC
Format/Info                              : Advanced Video Codec
Format profile                           : High@L4
Format settings                          : CABAC / 4 Ref Frames
Format settings, CABAC                   : Yes
Format settings, Reference frames        : 4 frames
Codec ID                                 : V_MPEG4/ISO/AVC
Duration                                 : 48 min 17 s
Bit rate mode                            : Variable
Bit rate                                 : 14.1 Mb/s
Maximum bit rate                         : 15.0 Mb/s
Width                                    : 1 920 pixels
Height                                   : 1 080 pixels
Display aspect ratio                     : 16:9
Frame rate mode                          : Constant
Frame rate                               : 23.976 (24000/1001) FPS
Color space                              : YUV
Chroma subsampling                       : 4:2:0
Bit depth                                : 8 bits
Scan type                                : Progressive
Bits/(Pixel*Frame)                       : 0.283
Stream size                              : 4.74 GiB (96%)
Writing library                          : x264 core 148 r2623 d5b2374
Encoding settings                        : cabac=1 / ref=4 / deblock=1:-1:-1 / analyse=0x3:0x133 / me=umh / subme=9 / psy=1 / psy_rd=1.00:0.15 / mixed_ref=1 / me_range=24 / chroma_me=1 / trellis=2 / 8x8dct=1 / cqm=0 / deadzone=21,11 / fast_pskip=1 / chroma_qp_offset=-3 / threads=34 / lookahead_threads=5 / sliced_threads=0 / nr=150 / decimate=1 / interlaced=0 / bluray_compat=0 / constrained_intra=0 / bframes=8 / b_pyramid=2 / b_adapt=2 / b_bias=0 / direct=3 / weightb=1 / open_gop=0 / weightp=2 / keyint=120 / keyint_min=61 / scenecut=0 / intra_refresh=0 / rc_lookahead=120 / rc=crf / mbtree=1 / crf=18.0 / qcomp=0.60 / qpmin=0 / qpmax=69 / qpstep=4 / vbv_maxrate=15000 / vbv_bufsize=31250 / crf_max=0.0 / nal_hrd=vbr / filler=0 / ip_ratio=1.40 / aq=3:1.00
Default                                  : Yes
Forced                                   : No
Color range                              : Limited
Color primaries                          : BT.709
Transfer characteristics                 : BT.709
Matrix coefficients                      : BT.709

Audio
ID                                       : 2
Format                                   : E-AC-3
Format/Info                              : Enhanced AC-3
Commercial name                          : Dolby Digital Plus
Codec ID                                 : A_EAC3
Duration                                 : 48 min 17 s
Bit rate mode                            : Constant
Bit rate                                 : 640 kb/s
Channel(s)                               : 6 channels
Channel layout                           : L R C LFE Ls Rs
Sampling rate                            : 48.0 kHz
Frame rate                               : 31.250 FPS (1536 SPF)
Compression mode                         : Lossy
Stream size                              : 221 MiB (4%)
Language                                 : English
Service kind                             : Complete Main
Default                                  : Yes
Forced                                   : No
Dialog Normalization                     : -24 dB
compr                                    : -0.28 dB
dialnorm_Average                         : -24 dB
dialnorm_Minimum                         : -24 dB
dialnorm_Maximum                         : -24 dB

Text
ID                                       : 3
Format                                   : UTF-8
Codec ID                                 : S_TEXT/UTF8
Codec ID/Info                            : UTF-8 Plain Text
Duration                                 : 48 min 2 s
Bit rate                                 : 81 b/s
Frame rate                               : 0.318 FPS
Count of elements                        : 916
Stream size                              : 28.6 KiB (0%)
Language                                 : English
Default                                  : No
Forced                                   : No

General
Unique ID                                : 200559129590922320780410944301384757543 (0x96E248884F992F1E860568F749327127)
Complete name                            : Z:\Queer As Folk S04\Queer.as.Folk.US.S04E14.Liberty.Ride.1080p.AMZN.WEB-DL.DDP5.1.H.264-NTb.mkv
Format                                   : Matroska
Format version                           : Version 4
File size                                : 3.94 GiB
Duration                                 : 56 min 45 s
Overall bit rate                         : 9 929 kb/s
Frame rate                               : 23.976 FPS
Encoded date                             : 2017-08-04 23:26:18 UTC
Writing application                      : mkvmerge v10.0.0 ('To Drown In You') 64bit
Writing library                          : libebml v1.3.4 + libmatroska v1.4.5

Video
ID                                       : 1
Format                                   : AVC
Format/Info                              : Advanced Video Codec
Format profile                           : High@L4
Format settings                          : CABAC / 4 Ref Frames
Format settings, CABAC                   : Yes
Format settings, Reference frames        : 4 frames
Codec ID                                 : V_MPEG4/ISO/AVC
Duration                                 : 56 min 45 s
Bit rate mode                            : Constant
Bit rate                                 : 10 000 kb/s
Width                                    : 1 920 pixels
Height                                   : 1 080 pixels
Display aspect ratio                     : 16:9
Frame rate mode                          : Constant
Frame rate                               : 23.976 (24000/1001) FPS
Color space                              : YUV
Chroma subsampling                       : 4:2:0
Bit depth                                : 8 bits
Scan type                                : Progressive
Bits/(Pixel*Frame)                       : 0.201
Stream size                              : 3.83 GiB (97%)
Language                                 : English
Default                                  : Yes
Forced                                   : No
Color range                              : Limited
Color primaries                          : BT.709
Transfer characteristics                 : BT.709
Matrix coefficients                      : BT.709

Audio
ID                                       : 2
Format                                   : E-AC-3
Format/Info                              : Enhanced AC-3
Commercial name                          : Dolby Digital Plus
Codec ID                                 : A_EAC3
Duration                                 : 56 min 45 s
Bit rate mode                            : Constant
Bit rate                                 : 256 kb/s
Channel(s)                               : 6 channels
Channel layout                           : L R C LFE Ls Rs
Sampling rate                            : 48.0 kHz
Frame rate                               : 31.250 FPS (1536 SPF)
Compression mode                         : Lossy
Stream size                              : 104 MiB (3%)
Language                                 : English
Service kind                             : Complete Main
Default                                  : Yes
Forced                                   : No
Dialog Normalization                     : -31 dB
compr                                    : -0.28 dB
mixlevel                                 : 80 dB
dmixmod                                  : Lo/Ro
ltrtcmixlev                              : -3.0 dB
ltrtsurmixlev                            : -3.0 dB
lorocmixlev                              : -3.0 dB
lorosurmixlev                            : -3.0 dB
dialnorm_Average                         : -31 dB
dialnorm_Minimum                         : -31 dB
dialnorm_Maximum                         : -31 dB

Text
ID                                       : 3
Format                                   : UTF-8
Codec ID                                 : S_TEXT/UTF8
Codec ID/Info                            : UTF-8 Plain Text
Duration                                 : 56 min 34 s
Bit rate                                 : 69 b/s
Frame rate                               : 0.292 FPS
Count of elements                        : 992
Stream size                              : 29.0 KiB (0%)
Language                                 : English
Default                                  : No
Forced                                   : No

</pre>
</div></div></div>
</div><div style="text-align: left"><br>
<br>
<div style="text-align: center">
<div class="bbCodeBlock bbCodeVfcHH HiddenContent">
<div class="attribution type">Hidden Content:</div>
<blockquote>You must reply before you can see the hidden data contained here.</blockquote>
</div></div></div></span><div style="text-align: left"><div style="text-align: center">​</div></div></div></div>
<div class="messageTextEndMarker">&nbsp;</div>
</blockquote>
</article>]]></description>
                <author><![CDATA[bspengeman]]></author>
                </item>

                </channel></rss>